<?xml version="1.0" encoding="utf-8"?>
<!-- Generator: Adobe Illustrator 25.2.0, SVG Export Plug-In . SVG Version: 6.00 Build 0)  -->
<svg version="1.1" id="Layer_1" xmlns="http://www.w3.org/2000/svg" xmlns:xlink="http://www.w3.org/1999/xlink" x="0px" y="0px"
	 viewBox="0 0 612 612" style="enable-background:new 0 0 612 612;" xml:space="preserve">
<style type="text/css">
	.st0{fill:#FEFEFE;}
	.st1{fill:#010101;}
</style>
<path d="M392.01,230.3c-11.57-8.7-24.5-8.14-35.12,1.95c-11.37,10.81-13.75,26.09-2.61,36.12c11.38,10.25,12.72,20.77,11.88,31.23
	c0,4.56,0.04,6.7,0,8.84c-0.58,31.05-16.82,54.46-42.92,61.88c-24.68,7.03-51.79-2.39-66.34-23.05
	c-15.66-22.24-14.9-56.4,0.95-77.85c9.21-12.48,8.96-25.89-2.4-36.73c-12.09-11.53-26.39-11.39-38.32-0.04
	c-11.17,10.62-13.72,25.98-1.97,36.07c12.51,10.75,12.34,22.6,12.11,36.08c-0.23,13.6,0.82,27.04,6.47,39.73
	c14.32,32.15,50.35,52.08,83.64,46.22c38.7-6.82,64.28-35.42,67.14-74.68c1.28-17.64-3.01-35.43,14.23-50.56
	C409.95,255.68,404.38,239.61,392.01,230.3z M235.35,260.96c-6.92,0-12.52-5.6-12.52-12.52c0-6.92,5.6-12.52,12.52-12.52
	c6.91,0,12.52,5.6,12.52,12.52C247.87,255.36,242.26,260.96,235.35,260.96z M376.3,260.96c-6.92,0-12.53-5.6-12.53-12.52
	c0-6.92,5.61-12.52,12.53-12.52c6.91,0,12.52,5.6,12.52,12.52C388.82,255.36,383.21,260.96,376.3,260.96z"/>
<path d="M537.24,543.66c-5.43-106.75-12.36-213.46-15.72-320.27c-0.96-30.39-15.94-51.84-29.71-75.37
	c-2.64-4.51-6.66-7.85-12.16-7.33c-15.09,1.42-12.43-7.92-9.15-15.96c6.95-17.03-1.19-23.14-16.48-26.06
	c-16.76-3.2-33.25-7.75-50.01-10.95c-13.28-2.53-21.19-8.39-27.32-21.87c-22.26-48.97-84.84-61.44-123.31-24.68
	c-10.65,10.18-21.5,14.87-35.13,16.31c-12.75,1.34-25.45,3.15-38.19,4.61c-51.86,5.93-51.8,5.9-46.07,57.93
	c1.03,9.31,0.58,15.55-8.57,24.31c-15.77,15.08-31.58,34.61-32.97,57.74C85.61,315.88,80.4,429.79,74.76,543.66
	c-0.41,8.31-2.73,17.23,4.34,24.32h453.8C539.96,560.89,537.66,551.97,537.24,543.66z M468.45,160.08
	c17.44-2.26,14.88,16.83,27.86,26.29h-41.03C461.31,177.03,454.43,161.9,468.45,160.08z M440.15,114.59
	c9.65,2.05,13.58,5.96,10.19,16.03c-2.71,8.05-4.56,16.41-6.45,24.71c-7.23,31.76-7.21,30.81-39.98,32.12
	c-16.51,0.66-24.62-3.59-26.05-20.95c-0.98-11.88-5.71-23.4-8.01-35.23c-3.05-15.65-7.47-28.63-28.92-18.01
	c0.73-14.85,1.99-22.34,18.41-17.48C385.82,103.61,413.1,108.83,440.15,114.59z M319.81,187.05h-25.58
	c-18.47,0-37.04-1.15-55.39,0.37c-14.1,1.16-16.37-6.63-18.38-17.05c-2.5-12.99,8.22-11.23,14.64-12.85
	c33.66-8.49,67.58-15.98,101.19-24.66c10.78-2.79,14.52-0.53,17.34,10.65C364.67,187.18,365.17,187.05,319.81,187.05z M360.53,75.31
	c-30.3-2.83-30.23-2.82-37.49,27.28c-1.42,5.9-0.69,15.53-8.02,15.51c-10.19-0.04-5.58-10.92-7.27-16.8
	c-2.13-7.38-2.04-15.46-2.46-23.26c-1.07-19.76-4.29-36.92-32.68-26.92C307.17,28.77,340.42,38.25,360.53,75.31z M159.11,82.93
	c38.96-4.3,77.87-9.09,116.71-14.26c8.56-1.14,9.52,3.35,10.24,9.46c1.49,12.74,2.78,25.51,4.67,38.19
	c1.44,9.63-5.01,9.81-11.52,11.29c-19.42,4.41-38.55,10.47-58.15,13.7c-20.24,3.33-27.6,11.88-18.83,31.65
	c1.65,3.7,1.15,8.35,1.65,12.57c-43.94,4.79-43.8,4.78-48.01-37.98c-1.67-17.01-3.56-34.05-6.49-50.87
	C147.8,87.65,149.43,84,159.11,82.93z M135.48,158.17c8.32,30.3,8.32,30.3-16.29,26.92C124.42,176.46,129.34,168.33,135.48,158.17z
	 M502.85,550.07c-65.61-0.61-131.22-0.28-196.83-0.28c-64.9,0-129.8-0.43-194.69,0.32c-14.86,0.18-19.07-3.28-18.15-18.88
	c6.01-101.75,11.2-203.56,15.73-305.39c0.66-14.68,4.55-19.01,19.47-18.94c118.38,0.61,236.76,0.6,355.14,0.01
	c14.79-0.08,18.91,4.06,19.56,18.85c4.57,102.54,9.9,205.06,15.79,307.54C519.65,546.96,516.02,550.19,502.85,550.07z"/>
<path class="st0" d="M392.01,230.3c-11.57-8.7-24.5-8.14-35.12,1.95c-11.37,10.81-13.75,26.09-2.61,36.12
	c11.38,10.25,12.72,20.77,11.88,31.23c0,4.56,0.04,6.7,0,8.84c-0.58,31.05-16.82,54.46-42.92,61.88
	c-24.68,7.03-51.79-2.39-66.34-23.05c-15.66-22.24-14.9-56.4,0.95-77.85c9.21-12.48,8.96-25.89-2.4-36.73
	c-12.09-11.53-26.39-11.39-38.32-0.04c-11.17,10.62-13.72,25.98-1.97,36.07c12.51,10.75,12.34,22.6,12.11,36.08
	c-0.23,13.6,0.82,27.04,6.47,39.73c14.32,32.15,50.35,52.08,83.64,46.22c38.7-6.82,64.28-35.42,67.14-74.68
	c1.28-17.64-3.01-35.43,14.23-50.56C409.95,255.68,404.38,239.61,392.01,230.3z M235.35,260.96c-6.92,0-12.52-5.6-12.52-12.52
	c0-6.92,5.6-12.52,12.52-12.52c6.91,0,12.52,5.6,12.52,12.52C247.87,255.36,242.26,260.96,235.35,260.96z M376.3,260.96
	c-6.92,0-12.53-5.6-12.53-12.52c0-6.92,5.61-12.52,12.53-12.52c6.91,0,12.52,5.6,12.52,12.52
	C388.82,255.36,383.21,260.96,376.3,260.96z"/>
<path class="st1" d="M392.01,230.3c-11.57-8.7-24.5-8.14-35.12,1.95c-11.37,10.81-13.75,26.09-2.61,36.12
	c11.38,10.25,12.72,20.77,11.88,31.23c0,4.56,0.04,6.7,0,8.84c-0.58,31.05-16.82,54.46-42.92,61.88
	c-24.68,7.03-51.79-2.39-66.34-23.05c-15.66-22.24-14.9-56.4,0.95-77.85c9.21-12.48,8.96-25.89-2.4-36.73
	c-12.09-11.53-26.39-11.39-38.32-0.04c-11.17,10.62-13.72,25.98-1.97,36.07c12.51,10.75,12.34,22.6,12.11,36.08
	c-0.23,13.6,0.82,27.04,6.47,39.73c14.32,32.15,50.35,52.08,83.64,46.22c38.7-6.82,64.28-35.42,67.14-74.68
	c1.28-17.64-3.01-35.43,14.23-50.56C409.95,255.68,404.38,239.61,392.01,230.3z M235.35,260.96c-6.92,0-12.52-5.6-12.52-12.52
	c0-6.92,5.6-12.52,12.52-12.52c6.91,0,12.52,5.6,12.52,12.52C247.87,255.36,242.26,260.96,235.35,260.96z M376.3,260.96
	c-6.92,0-12.53-5.6-12.53-12.52c0-6.92,5.61-12.52,12.53-12.52c6.91,0,12.52,5.6,12.52,12.52
	C388.82,255.36,383.21,260.96,376.3,260.96z"/>
</svg>
