<?xml version="1.0" encoding="utf-8"?>
<!-- Generator: Adobe Illustrator 25.2.0, SVG Export Plug-In . SVG Version: 6.00 Build 0)  -->
<svg version="1.1" id="Layer_1" xmlns="http://www.w3.org/2000/svg" xmlns:xlink="http://www.w3.org/1999/xlink" x="0px" y="0px"
	 viewBox="0 0 612 612" style="enable-background:new 0 0 612 612;" xml:space="preserve">
<g>
	<path d="M509.27,457.51c-3.26-13.72-14.4-22.28-29.94-22.31c-58.05-0.1-116.11-0.04-174.16-0.04H202.6
		c-24.58,0-49.16-0.19-73.73,0.08c-16.37,0.18-28.35,11.37-29.31,26.61c-0.99,15.49,10.35,28.43,26.76,30.34
		c3.52,0.41,7.11,0.26,10.67,0.26c67.32,0.01,134.63,0.01,201.95,0.01c45.23,0,90.46-0.03,135.69,0.03c6.83,0,13.51-0.37,19.73-3.6
		C505.85,482.94,512.17,469.68,509.27,457.51z M477.85,480.46c-57.72,0.07-115.43,0.03-173.15,0.03c-55.93,0-111.86,0-167.8-0.01
		c-3.56,0-7.14,0.12-10.68-0.22c-9.19-0.89-14.34-6.65-15.05-15.28c-0.72-8.68,3.59-15.24,12.47-17.44c4.08-1.01,8.45-1.1,12.69-1.1
		c112.23-0.05,224.45-0.04,336.67-0.04c1.79,0,3.57-0.06,5.35,0.01c12.41,0.51,20.3,7.36,20.17,17.49
		C498.39,474.08,490.68,480.44,477.85,480.46z"/>
	<path d="M299.17,116.1c81.05,0.08,147,58.13,157.41,133.29c2.27,16.35,2.8,32.57,0.31,48.92c-4.05,26.6,5.04,51.37,11.01,76.55
		c2.96,12.45,6.46,24.77,9.4,37.22c0.93,3.93,2.79,9.08-3.41,10.52c-5.21,1.21-6.53-2.95-7.46-6.98
		c-7.1-30.8-17.23-60.9-21.52-92.37c-1.71-12.56,0.57-24.9,1.77-37.24c8.3-84.87-61.54-160.58-146.63-158.62
		c-68.33,1.57-129.67,59.48-136.69,128.4c-1.57,15.4-1.11,30.62,0.75,45.79c1.87,15.16-0.01,29.83-3.56,44.41
		c-5.37,22.11-10.86,44.19-16.68,66.17c-1.22,4.6-0.8,12.81-8.43,11.03c-7.52-1.76-3.84-8.64-2.66-13.49
		c5.46-22.45,10.82-44.93,16.77-67.26c4.21-15.8,4.6-31.69,2.39-47.65c-10.83-77.98,39.93-154.32,115.91-174.22
		C280.04,117.39,292.34,116.02,299.17,116.1z"/>
	<path d="M304.46,47.74c29.23-0.09,52.67,23.78,51.49,52.41c-0.18,4.29,0.15,9.52-5.63,9.8c-6.17,0.29-5.57-4.91-5.76-9.25
		c-1.09-24.56-17.17-41.52-39.45-41.74c-22.68-0.23-39.06,16.76-40.3,41.95c-0.2,4.02,0.16,8.68-5.16,8.86
		c-5.91,0.2-5.99-4.77-6.23-9.17C251.87,72.16,275.35,47.82,304.46,47.74z"/>
	<path d="M300.18,548.99c-19.66-0.7-38.13-11.44-50.53-32.39c-1.95-3.29-4.47-7.39,0.17-10.31c5.03-3.17,7.47,0.72,9.97,4.55
		c23.42,35.74,65.51,36.19,89.32,1.01c2.4-3.54,4.56-8.36,9.77-4.89c4.95,3.29,1.85,7.44-0.23,11.19
		C348.16,537.03,327.42,548.94,300.18,548.99z"/>
</g>
</svg>
