<?xml version="1.0" encoding="utf-8"?>
<!-- Generator: Adobe Illustrator 25.2.0, SVG Export Plug-In . SVG Version: 6.00 Build 0)  -->
<svg version="1.1" id="Layer_1" xmlns="http://www.w3.org/2000/svg" xmlns:xlink="http://www.w3.org/1999/xlink" x="0px" y="0px"
	 viewBox="0 0 400 368" style="enable-background:new 0 0 400 368;" xml:space="preserve">
<style type="text/css">
	.st0{fill:#FFFFFF;}
</style>
<g>
	<path class="st0" d="M390.55,94.73c-1.95,1.71-1.72,4.24-2.26,6.41c-10.98,44.01-21.86,88.05-32.81,132.07
		c-2.04,8.19-6.85,11.97-15.24,11.97c-73.7,0.02-147.4,0.02-221.1,0c-8.05,0-13.29-4.33-15.16-12.18
		C88.8,169.43,73.59,105.85,58.48,42.25c-0.54-2.27-1.3-2.97-3.64-2.95c-11.1,0.13-22.2,0.15-33.29,0
		c-7.29-0.1-13.12-5.52-13.99-12.57c-0.85-6.86,3.53-13.38,10.3-15.42c1.83-0.56,3.7-0.52,5.55-0.52
		c14.84-0.02,29.68-0.02,44.52,0.02c8.41,0.02,13.21,3.69,15.24,11.94c4.01,16.29,7.98,32.59,11.7,48.95
		c0.72,3.16,1.81,4.08,5.05,4.07c91.41-0.1,182.81-0.07,274.22-0.14c8.42-0.01,13.76,3.77,16.42,11.62
		C390.55,89.74,390.55,92.24,390.55,94.73z M230.2,104.39c-41.26,0-82.53,0.02-123.79-0.05c-2.68,0-3.7,0.21-2.94,3.38
		c8.53,35.26,16.92,70.56,25.3,105.86c0.53,2.22,1.37,3.12,3.9,3.11c64.83-0.09,129.65-0.08,194.48-0.02c2.28,0,3.13-0.59,3.7-2.92
		c8.62-35.24,17.31-70.47,26.18-105.65c0.86-3.41,0.12-3.8-3.04-3.79C312.73,104.43,271.47,104.39,230.2,104.39z"/>
	<path class="st0" d="M185.08,313.93c-0.39,26.59-21.75,47.6-48.07,47.3c-26.68-0.31-47.67-21.78-47.32-48.4
		c0.34-26.3,22.05-47.34,48.43-46.93C164.36,266.31,185.46,287.89,185.08,313.93z M156.4,313.45c-0.04-10.43-8.63-18.97-19.05-18.94
		c-10.39,0.03-19.07,8.66-19.09,18.99c-0.01,10.51,8.84,19.3,19.32,19.17C147.99,332.53,156.44,323.9,156.4,313.45z"/>
	<path class="st0" d="M263.1,313.44c-0.06-26.29,21.3-47.53,47.81-47.53c26.03,0,47.43,21.18,47.54,47.05
		c0.12,26.78-20.95,48.23-47.42,48.27C284.32,361.26,263.16,340.17,263.1,313.44z M291.74,313.59c0.04,10.45,8.59,19.04,18.97,19.07
		c10.51,0.02,19.28-8.82,19.17-19.31c-0.11-10.36-8.83-18.91-19.2-18.84C300.21,294.58,291.7,303.16,291.74,313.59z"/>
</g>
<path class="st0" d="M617.02-505c-9.48,0-18.96,0-28.43,0c-0.44-1.15-1.46-0.69-2.24-0.76c-26.09-2.41-50.92-9.33-73.73-22.23
	c-55.25-31.23-88.43-78.1-98.62-140.98c-0.68-4.21-0.32-8.58-1.99-12.62c0-9.98,0-19.95,0-29.93c1.5-2.15,1.02-4.72,1.29-7.07
	c4.07-35.36,16.65-67.38,38.88-95.11c42.31-52.78,97.53-77.6,165.2-73.73c35.25,2.02,67.71,13.24,96.09,34.16
	c60.14,44.34,87.22,104.11,80.17,178.68c-3.35,35.43-16.67,67.23-38.63,95.17c-31.62,40.23-72.77,64.49-123.47,72.35
	C626.69-506.3,621.74-506.48,617.02-505z M731.28-586.49c53.64-59.44,61.08-165.69-13.58-234.56
	c-73.05-67.38-188.19-57.75-249.08,22.84c-56.74,75.1-34.74,167.55,7.41,211.53c5.42-20.92,15.25-39.42,29.67-55.41
	c14.49-16.06,31.97-27.83,52.39-35.55c-48-34.72-41.35-95.3-11.32-124.24c32.35-31.19,82.76-30.86,114.3,0.75
	c30.36,30.43,34.45,89.73-11.85,123.27C691.37-660.8,718.69-630.47,731.28-586.49z M604.23-527.47c9.19-0.18,19.02-0.84,28.71-2.61
	c28.69-5.23,54.43-17,77.16-35.33c1.47-1.18,1.75-2.22,1.47-4.07c-3.92-26.11-15.44-48.19-35.17-65.73
	c-27-24.01-58.71-32.66-93.95-25.89c-45.93,8.83-80.63,46.38-86.9,91.65c-0.25,1.83-0.03,2.89,1.46,4.08
	C528.18-540.5,563.71-527.93,604.23-527.47z M603.52-686.54c31.91,0.04,57.98-25.81,58.25-57.75c0.27-31.89-25.98-58.36-57.99-58.49
	c-32.02-0.13-58.17,25.85-58.44,58.04C545.07-712.92,571.41-686.58,603.52-686.54z"/>
</svg>
