<?xml version="1.0" encoding="utf-8"?>
<!-- Generator: Adobe Illustrator 25.2.0, SVG Export Plug-In . SVG Version: 6.00 Build 0)  -->
<svg version="1.1" id="Layer_1" xmlns="http://www.w3.org/2000/svg" xmlns:xlink="http://www.w3.org/1999/xlink" x="0px" y="0px"
	 viewBox="0 0 612 612" style="enable-background:new 0 0 612 612;" xml:space="preserve">
<style type="text/css">
	.st0{fill:#004AAD;}
</style>
<g>
	<path class="st0" d="M138.58,181.98c15.38,0,30.53,0,45.67,0c16.5,0,33-0.07,49.5,0.02c6.36,0.03,10.81,3.76,11.79,9.39
		c0.99,5.67-1.81,11.06-7.07,12.85c-2.14,0.73-4.57,0.82-6.87,0.82c-27.33,0.05-54.67,0.03-82,0.03c-1.97,0-3.95,0-6.93,0
		c10.95,59.93,21.8,119.27,32.68,178.81c96.63,0,192.91,0,289.75,0c10.87-59.43,21.74-118.8,32.71-178.8c-2.48,0-4.28,0-6.08,0
		c-26.17,0-52.34,0.05-78.5-0.03c-10.09-0.03-15.89-9.3-11.02-17.41c2.57-4.28,6.57-5.76,11.44-5.74c19.33,0.07,38.67,0.03,58,0.04
		c11.33,0,22.67-0.03,34,0c12.74,0.03,18.7,7.03,16.42,19.61c-6.31,34.91-12.74,69.8-19.12,104.69c-5.22,28.51-10.47,57-15.64,85.52
		c-2.14,11.82-6.47,15.52-18.59,15.52c-98.84,0-197.68-0.01-296.51-0.01c-12.77,0-16.63-3.04-18.93-15.57
		c-14.33-77.97-28.6-155.95-42.89-233.93c-0.42-2.29-0.79-4.6-1.26-6.88c-2.31-11.38-10.18-18.03-21.77-18.13
		c-12.83-0.11-25.67,0.08-38.5-0.03c-6.47-0.05-10.99-4.04-11.84-9.98c-0.78-5.42,2.46-10.74,7.8-12.46
		c1.55-0.5,3.28-0.66,4.92-0.66c15.17-0.04,30.34-0.24,45.5,0.05c17.29,0.33,31.68,12.36,35.19,29.3
		c2.53,12.23,4.59,24.55,6.87,36.83C137.67,177.77,138.1,179.69,138.58,181.98z"/>
	<path class="st0" d="M313.55,287.36c0-2.97,0-4.89,0-6.81c0-51.14,0-102.28,0.01-153.43c0-1.66-0.11-3.36,0.16-4.98
		c0.82-4.88,4.85-8.29,9.74-8.43c5.03-0.14,9.09,2.83,10.19,7.78c0.46,2.08,0.46,4.29,0.47,6.45c0.02,50.98,0.02,101.95,0.02,152.93
		c0,1.78,0,3.56,0,6.38c1.83-1.64,2.92-2.53,3.91-3.52c10.26-10.24,20.49-20.51,30.76-30.73c5.01-4.98,11.21-5.46,15.48-1.29
		c4.49,4.38,4.12,10.62-1.06,15.82c-16.59,16.63-33.19,33.25-49.82,49.83c-6.39,6.37-12.82,6.38-19.18,0.04
		c-16.63-16.58-33.24-33.19-49.82-49.83c-5.13-5.15-5.52-11.51-1.11-15.86c4.19-4.13,10.51-3.71,15.52,1.24
		c10.06,9.96,20.03,20.02,30.05,30.02C310.09,284.22,311.42,285.38,313.55,287.36z"/>
	<path class="st0" d="M414.16,532.21c-26.21,0.01-47.47-21.1-47.54-47.23c-0.07-26.26,21.55-47.85,47.74-47.68
		c26.17,0.17,47.2,21.4,47.17,47.61C461.5,511.18,440.45,532.19,414.16,532.21z M389.35,484.74c-0.06,13.5,11.19,24.87,24.68,24.92
		c13.56,0.05,24.72-11.08,24.8-24.75c0.08-13.61-11.04-24.85-24.63-24.89C400.66,459.97,389.42,471.15,389.35,484.74z"/>
	<path class="st0" d="M226.01,532.21c-26.21,0.11-47.47-20.92-47.61-47.09c-0.14-26.38,21.22-47.88,47.5-47.82
		c26.06,0.06,47.38,21.41,47.4,47.47C273.32,510.96,252.25,532.1,226.01,532.21z M250.53,484.81c0.05-13.57-11.14-24.81-24.7-24.8
		c-13.6,0.01-24.65,11.12-24.68,24.83c-0.03,13.64,11.17,24.91,24.67,24.82C239.48,509.57,250.48,498.51,250.53,484.81z"/>
</g>
</svg>
