<?xml version="1.0" encoding="utf-8"?>
<!-- Generator: Adobe Illustrator 25.2.0, SVG Export Plug-In . SVG Version: 6.00 Build 0)  -->
<svg version="1.1" id="Layer_1" xmlns="http://www.w3.org/2000/svg" xmlns:xlink="http://www.w3.org/1999/xlink" x="0px" y="0px"
	 viewBox="0 0 612 612" style="enable-background:new 0 0 612 612;" xml:space="preserve">
<style type="text/css">
	.st0{fill:#004AAD;}
</style>
<g>
	<path class="st0" d="M317.57,29.48c4.53,12.93,1.83,16.51-12.7,16.52c-53.97,0.03-107.95,0-161.92,0.02
		c-13.92,0-14.26,0.34-14.27,14.21c-0.03,26.81,0.36,53.63-0.22,80.43c-0.19,8.85,1.46,11.78,11.23,11.71
		c73.73-0.5,147.46-0.28,221.18-0.27c25.56,0,32.86,7.21,32.86,32.39c0,32.81,0.04,65.61-0.01,98.42
		c-0.03,19.57-8.7,28.38-28.33,28.43c-47.27,0.1-94.54,0.01-141.81,0.07c-5.91,0.01-12.41,0.06-12.68-7.54
		c-0.28-8.05,6.2-9.01,12.69-9c46.21,0.03,92.43,0.03,138.64,0.01c14.26-0.01,14.78-0.56,14.79-14.91
		c0.01-32.81-0.27-65.62,0.17-98.42c0.13-9.57-2.91-13.07-12.71-13.04c-81.49,0.27-162.98,0.27-244.47-0.01
		c-9.83-0.03-12.82,3.49-12.7,13.03c0.42,33.51,0.43,67.03,0,100.53c-0.12,9.64,3.1,13.24,12.81,12.98
		c19.39-0.51,38.8-0.16,58.2-0.14c2.82,0,5.67-0.14,8.45,0.24c5.16,0.7,8.61,3.34,8.05,9.09c-0.51,5.2-4.04,7.09-8.82,7.1
		c-16.58,0.05-33.17,0.29-49.74-0.08c-6.01-0.13-7.74,1.66-7.73,7.69c0.19,75.14,0.22,150.28,0,225.41
		c-0.03,9.71,5.12,10.64,12.8,10.63c79.02-0.14,158.04-0.13,237.06-0.01c6.94,0.01,17.14-2.56,17.07,8.49
		c-0.08,11.39-10.52,7.87-17.2,7.89c-77.96,0.18-155.93-0.39-233.88,0.44c-21.49,0.23-32.91-9.01-32.59-33.08
		c0.95-72.3,0.29-144.63,0.43-216.94c0.01-6.29-0.37-10.51-7.79-13.12c-8.86-3.13-13.45-10.92-13.45-20.77
		c0-37.39-0.02-74.79,0.01-112.18c0.01-10.24,4.83-18.08,14.31-21.25c6.74-2.26,6.93-6.15,6.89-11.67
		c-0.16-26.46,0.62-52.94-0.35-79.36c-0.53-14.46,2.9-25.83,15.19-33.91C190.56,29.48,254.06,29.48,317.57,29.48z"/>
	<path class="st0" d="M408.6,29.48c23.16,23.53,46.35,47.03,69.48,70.59c10.6,10.8,25.14,20.02,30.51,33.01
		c5.37,13.01,1.69,29.82,1.69,44.96c0.05,121.3,0.03,242.61,0.02,363.91c0,21.3-8.1,29.46-29.15,29.48
		c-18.69,0.02-37.38-0.08-56.07,0.05c-6.25,0.05-13.45,0.27-13.44-7.81c0.01-8.35,7.26-8.88,14.04-8.84
		c18.69,0.12,37.39-0.33,56.06,0.2c9.38,0.27,12.19-3.36,12.18-12.4c-0.19-130.12-0.2-260.24,0.04-390.36
		c0.01-7.37-2.54-8.56-9.02-8.45c-21.15,0.35-42.32,0.26-63.47,0.09c-16.51-0.13-25.53-9.11-25.65-25.47
		c-0.16-21.51-0.34-43.03,0.13-64.53c0.15-6.74-1.97-8.29-8.3-8.06c-13.03,0.47-26.09,0.26-39.14,0.1
		c-12.31-0.15-15.24-5.24-9.77-16.49C362.03,29.48,385.31,29.48,408.6,29.48z M478.08,127.42c-22.02-22.06-44.11-44.18-65.79-65.9
		c0,17.92,0.08,37.19-0.04,56.45c-0.04,6.66,2.91,9.54,9.55,9.49C441.05,127.33,460.3,127.42,478.08,127.42z"/>
	<path class="st0" d="M311.53,367.47c9.15,0,18.31,0.12,27.46-0.03c7.48-0.13,10.94,3.12,10.78,10.79
		c-0.25,11.96,0.25,23.95-0.19,35.9c-0.23,6.27,1.32,9.22,8.13,8.47c4.52-0.5,9.15-0.15,13.72,0c3.76,0.12,6.67,1.59,8.33,5.33
		c1.8,4.05-0.25,6.88-2.75,9.38c-19.67,19.66-39.41,39.25-59.16,58.84c-4.68,4.64-9.15,4.1-13.72-0.46
		c-19.43-19.4-38.97-38.7-58.41-58.09c-2.5-2.49-4.78-5.24-3.2-9.29c1.64-4.22,4.94-5.51,9.13-5.79c6.63-0.44,15.56,2.98,19.34-1.38
		c4.8-5.52,1.34-14.78,1.68-22.42c0.31-7.03,0.22-14.08,0.04-21.12c-0.18-7.21,3.39-10.28,10.29-10.12c0.35,0.01,0.7-0.01,1.06-0.01
		C293.22,367.46,302.37,367.46,311.53,367.47z M271.4,439.25c12.85,13.03,24.69,24.98,36.47,37c1.94,1.98,3.58,3.2,6.09,0.69
		c12.25-12.26,24.57-24.43,37.98-37.73c-18.01-1.05-18.44-1.51-18.46-17.63c-0.01-10.21-0.22-20.42,0.08-30.61
		c0.15-5.28-1.23-7.65-7.04-7.42c-10.19,0.41-20.42,0.42-30.61,0c-5.87-0.24-7.15,2.23-7,7.45c0.29,10.2,0.09,20.41,0.08,30.61
		C288.97,437.55,288.47,438.09,271.4,439.25z"/>
	<path class="st0" d="M217.8,230.84c0-9.52,0.06-19.04-0.02-28.56c-0.04-4.53,0.59-9.35,5.78-9.8c12.2-1.05,24.77-2.85,36.23,3.34
		c14.38,7.76,21.44,28.59,16.63,47.55c-4.58,18.03-16.28,27.57-34.54,28.15c-24.08,0.77-24.08,0.77-24.08-23.77
		C217.79,242.12,217.79,236.48,217.8,230.84z M234.22,231.07c0.03,0,0.06,0,0.08,0c0,5.99,0.22,12-0.07,17.98
		c-0.25,5.05,1.52,6.57,6.69,6.41c10.28-0.3,16.59-5.19,19.24-14.8c3.33-12.07-0.91-26.49-8.66-30.63
		c-11.09-5.93-17.31-2.17-17.3,10.45C234.23,224.01,234.22,227.54,234.22,231.07z"/>
	<path class="st0" d="M169.82,190.57c5.61,0.04,11.19-0.28,16.67,1.75c11.4,4.22,19.35,15.54,18.4,26.76
		c-1.08,12.78-10.76,24.18-23.61,24.13c-12.59-0.05-15.43,5.08-13.94,16.07c0.84,6.15,0.32,13.23-7.9,13.21
		c-7.93-0.02-8.53-6.83-8.51-13.18c0.05-16.56,0.02-33.11,0.02-49.67C150.94,191.29,151.67,190.55,169.82,190.57z M167.45,218.31
		c0.69,3.79-2.68,10.65,6.79,9.8c7.24-0.65,14.05-2.29,13.94-10.82c-0.1-7.64-5.99-9.63-13.17-10.32
		C165.15,206.02,167.6,212.44,167.45,218.31z"/>
	<path class="st0" d="M312.38,190.78c4.23,0,8.51-0.41,12.67,0.11c4.62,0.57,7.89,3.33,7.76,8.42c-0.13,5-3.08,7.67-8.04,7.94
		c-2.81,0.16-5.64,0.12-8.46,0.04c-5.33-0.15-9.84-1.16-9.8,7.57c0.03,8.54,4.27,7.85,9.73,7.71c2.79-0.07,5.7-0.05,8.36,0.66
		c4.2,1.12,6.62,4.18,6.11,8.65c-0.57,4.99-3.8,6.87-8.73,7.27c-15.07,1.24-14.99,1.38-15.1,16.63c-0.05,6.8,1.98,16.21-8.11,16.38
		c-10.09,0.17-8.53-9.12-8.55-16.03c-0.05-16.22-0.02-32.43-0.02-48.65c0.01-15.29,1.55-16.82,16.89-16.84c1.76,0,3.53,0,5.29,0
		C312.38,190.7,312.38,190.74,312.38,190.78z"/>
</g>
</svg>
