<?xml version="1.0" encoding="utf-8"?>
<!-- Generator: Adobe Illustrator 25.2.0, SVG Export Plug-In . SVG Version: 6.00 Build 0)  -->
<svg version="1.1" xmlns="http://www.w3.org/2000/svg" xmlns:xlink="http://www.w3.org/1999/xlink" x="0px" y="0px"
	 viewBox="0 0 366 368" style="enable-background:new 0 0 366 368;" xml:space="preserve">
<style type="text/css">
	.st0{display:none;}
	.st1{display:inline;}
	.st2{fill:#FFFFFF;}
</style>
<g id="Layer_1" class="st0">
	<g class="st1">
		<path class="st2" d="M373.55,94.73c-1.95,1.71-1.72,4.24-2.26,6.41c-10.98,44.01-21.86,88.05-32.81,132.07
			c-2.04,8.19-6.85,11.97-15.24,11.97c-73.7,0.02-147.4,0.02-221.1,0c-8.05,0-13.29-4.33-15.16-12.18
			C71.8,169.43,56.59,105.85,41.48,42.25c-0.54-2.27-1.3-2.97-3.64-2.95c-11.1,0.13-22.2,0.15-33.29,0
			c-7.29-0.1-13.12-5.52-13.99-12.57c-0.85-6.86,3.53-13.38,10.3-15.42c1.83-0.56,3.7-0.52,5.55-0.52
			c14.84-0.02,29.68-0.02,44.52,0.02c8.41,0.02,13.21,3.69,15.24,11.94c4.01,16.29,7.98,32.59,11.7,48.95
			c0.72,3.16,1.81,4.08,5.05,4.07c91.41-0.1,182.81-0.07,274.22-0.14c8.42-0.01,13.76,3.77,16.42,11.62
			C373.55,89.74,373.55,92.24,373.55,94.73z M213.2,104.39c-41.26,0-82.53,0.02-123.79-0.05c-2.68,0-3.7,0.21-2.94,3.38
			c8.53,35.26,16.92,70.56,25.3,105.86c0.53,2.22,1.37,3.12,3.9,3.11c64.83-0.09,129.65-0.08,194.48-0.02c2.28,0,3.13-0.59,3.7-2.92
			c8.62-35.24,17.31-70.47,26.18-105.65c0.86-3.41,0.12-3.8-3.04-3.79C295.73,104.43,254.47,104.39,213.2,104.39z"/>
		<path class="st2" d="M168.08,313.93c-0.39,26.59-21.75,47.6-48.07,47.3c-26.68-0.31-47.67-21.78-47.32-48.4
			c0.34-26.3,22.05-47.34,48.43-46.93C147.36,266.31,168.46,287.89,168.08,313.93z M139.4,313.45
			c-0.04-10.43-8.63-18.97-19.05-18.94c-10.39,0.03-19.07,8.66-19.09,18.99c-0.01,10.51,8.84,19.3,19.32,19.17
			C130.99,332.53,139.44,323.9,139.4,313.45z"/>
		<path class="st2" d="M246.1,313.44c-0.06-26.29,21.3-47.53,47.81-47.53c26.03,0,47.43,21.18,47.54,47.05
			c0.12,26.78-20.95,48.23-47.42,48.27C267.32,361.26,246.16,340.17,246.1,313.44z M274.74,313.59
			c0.04,10.45,8.59,19.04,18.97,19.07c10.51,0.02,19.28-8.82,19.17-19.31c-0.11-10.36-8.83-18.91-19.2-18.84
			C283.21,294.58,274.7,303.16,274.74,313.59z"/>
	</g>
</g>
<g id="Layer_2">
	<path class="st2" d="M195.12,353.86c-8.41,0-16.82,0-25.23,0c-0.39-1.02-1.3-0.61-1.99-0.67c-23.15-2.13-45.19-8.28-65.43-19.72
		c-49.03-27.71-78.47-69.31-87.52-125.11c-0.6-3.73-0.28-7.61-1.77-11.2c0-8.85,0-17.71,0-26.56c1.34-1.91,0.91-4.19,1.15-6.27
		c3.61-31.38,14.78-59.8,34.5-84.41c37.55-46.84,86.55-68.87,146.6-65.43c31.29,1.79,60.09,11.75,85.27,30.32
		c53.37,39.35,77.4,92.39,71.15,158.57c-2.97,31.44-14.79,59.66-34.29,84.46c-28.06,35.7-64.58,57.23-109.57,64.21
		C203.71,352.71,199.31,352.55,195.12,353.86z M296.52,281.54c47.6-52.75,54.21-147.04-12.05-208.16
		c-64.83-59.8-167-51.25-221.04,20.27c-50.36,66.65-30.83,148.69,6.58,187.72c4.81-18.56,13.53-34.98,26.33-49.17
		c12.86-14.26,28.37-24.7,46.49-31.55c-42.59-30.81-36.69-84.57-10.05-110.26c28.71-27.68,73.44-27.39,101.43,0.67
		c26.95,27.01,30.57,79.63-10.51,109.39C261.1,215.6,285.34,242.52,296.52,281.54z M183.77,333.92c8.16-0.16,16.88-0.75,25.48-2.32
		c25.46-4.64,48.3-15.09,68.47-31.35c1.3-1.05,1.55-1.97,1.31-3.61c-3.48-23.17-13.71-42.77-31.21-58.33
		c-23.96-21.31-52.11-28.99-83.38-22.98c-40.76,7.83-71.55,41.16-77.11,81.33c-0.23,1.63-0.03,2.56,1.3,3.62
		C116.28,322.36,147.82,333.51,183.77,333.92z M183.14,192.76c28.32,0.03,51.45-22.9,51.69-51.25c0.24-28.3-23.05-51.79-51.46-51.9
		c-28.41-0.11-51.62,22.94-51.86,51.51C131.27,169.35,154.64,192.73,183.14,192.76z"/>
</g>
</svg>
